HIERARCHY
ROOT joint_0
{
	OFFSET 0.000000 0.000000 0.000000
	CHANNELS 6 Xposition Yposition Zposition Zrotation Yrotation Xrotation 
	JOINT joint_1
	{
		OFFSET 11.612000 -0.419000 106.198000
		CHANNELS 3 Zrotation Yrotation Xrotation
		JOINT joint_2
		{
			OFFSET -1.708000 -1.022000 97.564090
			CHANNELS 3 Zrotation Yrotation Xrotation
			JOINT joint_3
			{
				OFFSET -4.121000 -1.538000 97.375000
				CHANNELS 3 Zrotation Yrotation Xrotation
				JOINT joint_4
				{
					OFFSET 5.442000 -2.123000 132.795900
					CHANNELS 3 Zrotation Yrotation Xrotation
					JOINT joint_5
					{
						OFFSET 21.935000 0.195000 82.975100
						CHANNELS 3 Zrotation Yrotation Xrotation
						End Site
						{
							OFFSET 0.000000 0.000000 0.000000
						}
					}
				}
				JOINT joint_6
				{
					OFFSET 4.262000 -30.048000 73.899900
					CHANNELS 3 Zrotation Yrotation Xrotation
					JOINT joint_7
					{
						OFFSET 9.731000 -136.810010 -21.963010
						CHANNELS 3 Zrotation Yrotation Xrotation
						JOINT joint_8
						{
							OFFSET 33.360000 -35.709000 -267.597900
							CHANNELS 3 Zrotation Yrotation Xrotation
							JOINT joint_9
							{
								OFFSET 36.156000 -29.759000 -240.558040
								CHANNELS 3 Zrotation Yrotation Xrotation
								End Site
								{
									OFFSET 0.000000 0.000000 0.000000
								}
							}
						}
					}
				}
				JOINT joint_10
				{
					OFFSET 2.027000 27.734000 74.914920
					CHANNELS 3 Zrotation Yrotation Xrotation
					JOINT joint_11
					{
						OFFSET -5.183000 136.784000 -23.604980
						CHANNELS 3 Zrotation Yrotation Xrotation
						JOINT joint_12
						{
							OFFSET 29.806000 37.229000 -267.809940
							CHANNELS 3 Zrotation Yrotation Xrotation
							JOINT joint_13
							{
								OFFSET 36.890000 46.524990 -237.772030
								CHANNELS 3 Zrotation Yrotation Xrotation
								End Site
								{
									OFFSET 0.000000 0.000000 0.000000
								}
							}
						}
					}
				}
			}
		}
	}
	JOINT joint_14
	{
		OFFSET -7.290000 -102.873990 -124.314940
		CHANNELS 3 Zrotation Yrotation Xrotation
		JOINT joint_15
		{
			OFFSET -15.466000 -19.909010 -438.533020
			CHANNELS 3 Zrotation Yrotation Xrotation
			JOINT joint_16
			{
				OFFSET -26.899000 -18.922000 -464.797000
				CHANNELS 3 Zrotation Yrotation Xrotation
				JOINT joint_17
				{
					OFFSET 179.329000 -12.011000 -84.174000
					CHANNELS 3 Zrotation Yrotation Xrotation
					End Site
					{
						OFFSET 0.000000 0.000000 0.000000
					}
				}
			}
		}
	}
	JOINT joint_18
	{
		OFFSET -6.225000 101.546000 -125.479980
		CHANNELS 3 Zrotation Yrotation Xrotation
		JOINT joint_19
		{
			OFFSET -13.973000 7.996000 -438.963010
			CHANNELS 3 Zrotation Yrotation Xrotation
			JOINT joint_20
			{
				OFFSET -44.294000 5.716000 -463.813970
				CHANNELS 3 Zrotation Yrotation Xrotation
				JOINT joint_21
				{
					OFFSET 178.505000 -4.689000 -85.139000
					CHANNELS 3 Zrotation Yrotation Xrotation
					End Site
					{
						OFFSET 0.000000 0.000000 0.000000
					}
				}
			}
		}
	}
}
MOTION
Frames: 10
Frame Time: 0.016667
-75.677000 -41.274000 1130.442990 0.166613 -2.364180 0.949211 -0.624919 2.180196 -0.383445 -0.645991 -0.435470 0.025439 -0.634695 0.436972 -0.030774 0.121732 0.411216 -0.463546 0.000000 0.000000 0.000000 -1.521583 0.014161 1.362573 -0.077953 -0.392344 -1.079694 -0.125097 0.834813 -0.144118 0.000000 0.000000 0.000000 -1.630061 -0.752004 0.765848 -0.254787 -0.607272 -1.690489 0.052251 0.074183 0.242299 0.000000 0.000000 0.000000 -0.277247 2.772032 0.074048 -0.169868 0.957440 -0.652091 -0.079236 -1.962061 -0.168526 0.000000 0.000000 0.000000 1.640014 3.002563 -0.229295 1.551544 -1.294144 0.244470 1.531886 0.853545 0.752290 0.000000 0.000000 0.000000 
-74.219000 -41.910000 1130.833980 0.390624 -2.014226 0.976125 -0.494542 2.321524 -0.417532 -0.515684 -0.436545 0.064692 -0.507497 0.419837 -0.057645 0.124500 -0.116341 -0.469187 0.000000 0.000000 0.000000 -2.271623 0.387624 0.841430 -0.059563 -0.074401 -0.654510 0.075661 -0.032129 0.475061 0.000000 0.000000 0.000000 -1.522717 -0.795957 0.872230 -0.296891 -0.679036 -1.630055 -0.079462 -0.339721 -0.082446 0.000000 0.000000 0.000000 -0.327155 2.603718 0.092553 -0.215995 0.744875 -0.678506 -0.135629 -1.924293 -0.192444 0.000000 0.000000 0.000000 1.554904 2.744408 -0.185003 1.471121 -1.457561 0.173103 1.451844 0.975420 0.717380 0.000000 0.000000 0.000000 
-72.072000 -42.693000 1131.322020 0.709401 -1.519874 1.012710 -0.346485 2.503706 -0.443129 -0.367641 -0.433870 0.112807 -0.363570 0.393354 -0.094122 0.134679 -0.869028 -0.502700 0.000000 0.000000 0.000000 -3.229642 0.899861 -0.043152 -0.012263 0.394220 0.103533 0.352200 -1.256124 1.278191 0.000000 0.000000 0.000000 -1.330639 -0.824907 1.002180 -0.350589 -0.751614 -1.524363 -0.269975 -0.925010 -0.574816 0.000000 0.000000 0.000000 -0.400167 2.367449 0.113050 -0.284334 0.450196 -0.707597 -0.217796 -1.870262 -0.227360 0.000000 0.000000 0.000000 1.433743 2.383837 -0.124962 1.356576 -1.686512 0.074077 1.338131 1.140725 0.667554 0.000000 0.000000 0.000000 
-69.326000 -43.382000 1131.751950 1.078435 -1.021946 1.047893 -0.277040 2.674265 -0.473357 -0.297985 -0.452186 0.151100 -0.296611 0.395073 -0.125209 0.140310 -1.683739 -0.521943 0.000000 0.000000 0.000000 -3.659951 1.378105 -0.727806 0.009266 0.889148 0.649133 0.583221 -2.252975 1.955225 0.000000 0.000000 0.000000 -1.217418 -0.723852 1.116526 -0.384575 -0.675783 -1.403684 -0.471665 -1.527642 -1.120608 0.000000 0.000000 0.000000 -0.504661 2.124906 0.130782 -0.388566 0.223316 -0.711533 -0.330905 -1.815035 -0.276697 0.000000 0.000000 0.000000 1.304536 2.028807 -0.069849 1.234270 -1.879025 -0.015975 1.217340 1.289300 0.613895 0.000000 0.000000 0.000000 
-65.717000 -43.947000 1132.051030 1.508019 -0.519331 1.080180 -0.343125 2.793629 -0.535612 -0.363100 -0.518371 0.176812 -0.361647 0.455614 -0.143946 0.130397 -2.600845 -0.482870 0.000000 0.000000 0.000000 -3.075950 1.817499 -1.085796 -0.024882 1.469289 0.852253 0.752737 -2.960629 2.492111 0.000000 0.000000 0.000000 -1.271694 -0.357395 1.219553 -0.384379 -0.296702 -1.222266 -0.731729 -2.302452 -1.837270 0.000000 0.000000 0.000000 -0.647869 1.908802 0.147040 -0.532957 0.026750 -0.681446 -0.481066 -1.736262 -0.341809 0.000000 0.000000 0.000000 1.162075 1.735373 -0.023825 1.096149 -2.113016 -0.083961 1.084389 1.437353 0.554400 0.000000 0.000000 0.000000 
-61.508000 -44.418000 1132.291020 1.988002 -0.012538 1.112321 -0.486247 2.901885 -0.601398 -0.504920 -0.605406 0.192502 -0.501860 0.543722 -0.155492 0.113195 -3.584469 -0.416226 0.000000 0.000000 0.000000 -1.945632 2.224374 -1.279286 -0.086359 2.086925 0.915805 0.870141 -3.463571 2.891089 0.000000 0.000000 0.000000 -1.419829 0.141164 1.267650 -0.357293 0.239533 -0.995790 -1.000369 -3.115542 -2.580369 0.000000 0.000000 0.000000 -0.823098 1.686239 0.161927 -0.713689 -0.103602 -0.624823 -0.662661 -1.654313 -0.421406 0.000000 0.000000 0.000000 1.011417 1.446759 0.019237 0.950151 -2.310691 -0.144568 0.944173 1.570414 0.491042 0.000000 0.000000 0.000000 
-57.578000 -44.642000 1132.541990 2.442262 0.360107 1.134984 -0.624349 3.061565 -0.607131 -0.643543 -0.665987 0.177348 -0.637387 0.612684 -0.145620 0.102238 -4.346538 -0.374446 0.000000 0.000000 0.000000 -0.941596 2.440335 -1.266508 -0.140616 2.468581 0.866966 0.852366 -3.378903 2.882074 0.000000 0.000000 0.000000 -1.599828 0.489011 1.210180 -0.317090 0.631408 -0.910853 -1.088824 -3.375537 -2.841129 0.000000 0.000000 0.000000 -1.018100 1.415735 0.166332 -0.933055 0.092856 -0.534580 -0.863346 -1.655774 -0.515493 0.000000 0.000000 0.000000 0.895523 1.096323 0.048164 0.845811 -2.133428 -0.196046 0.837060 1.571193 0.440030 0.000000 0.000000 0.000000 
-54.333000 -44.476000 1132.818970 2.874971 0.530167 1.155426 -0.745457 3.285193 -0.535699 -0.768076 -0.667873 0.114248 -0.756864 0.640727 -0.099625 0.103701 -4.810468 -0.380319 0.000000 0.000000 0.000000 -0.257930 2.353937 -0.940016 -0.182232 2.451786 0.559966 0.644624 -2.325098 2.374934 0.000000 0.000000 0.000000 -1.806607 0.553694 1.014747 -0.263504 0.741907 -1.078433 -0.875178 -2.638457 -2.357527 0.000000 0.000000 0.000000 -1.255311 1.015854 0.127201 -1.230676 0.863901 -0.380528 -1.107067 -1.804275 -0.639532 0.000000 0.000000 0.000000 0.835704 0.581334 0.033229 0.810676 -1.289823 -0.239354 0.783939 1.352830 0.409038 0.000000 0.000000 0.000000 
-51.367000 -44.062000 1133.107060 3.281505 0.567887 1.161141 -0.861080 3.557504 -0.407278 -0.889362 -0.649640 0.020723 -0.871230 0.659479 -0.029301 0.111747 -5.053717 -0.410518 0.000000 0.000000 0.000000 0.312248 2.073248 -0.414428 -0.217987 2.195823 0.097803 0.305950 -0.651565 1.495803 0.000000 0.000000 0.000000 -2.045897 0.464430 0.742484 -0.196391 0.702721 -1.411854 -0.477642 -1.341321 -1.392099 0.000000 0.000000 0.000000 -1.511840 0.566513 0.074300 -1.565887 1.960783 -0.198271 -1.369774 -2.010739 -0.776151 0.000000 0.000000 0.000000 0.808637 0.004127 -0.004248 0.815181 -0.073637 -0.255179 0.766818 1.026403 0.392326 0.000000 0.000000 0.000000 
-48.339000 -43.677000 1133.428960 3.571891 0.543760 1.113718 -0.921727 3.896425 -0.225246 -0.957419 -0.670091 -0.060195 -0.932517 0.703797 0.026282 0.117542 -5.010073 -0.432750 0.000000 0.000000 0.000000 0.693834 1.768574 0.011080 -0.229407 1.908047 -0.112587 -0.074907 0.940324 0.291015 0.000000 0.000000 0.000000 -2.275589 0.337124 0.557217 -0.144574 0.613825 -1.859537 -0.077525 -0.202904 -0.241664 0.000000 0.000000 0.000000 -1.708883 0.269793 0.090963 -1.822734 2.897664 -0.072740 -1.568376 -2.157837 -0.878525 0.000000 0.000000 0.000000 0.790762 -0.395506 0.003207 0.823259 0.978721 -0.223098 0.763469 0.741891 0.383188 0.000000 0.000000 0.000000 
